<?xml version="1.0" encoding="UTF-8" standalone="no"?>
<svg width="1341px" height="252px" viewBox="0 0 1341 252" version="1.1" xmlns="http://www.w3.org/2000/svg" xmlns:xlink="http://www.w3.org/1999/xlink">
    <!-- Generator: Sketch 3.6.1 (26313) - http://www.bohemiancoding.com/sketch -->
    <title>sky</title>
    <desc>Created with Sketch.</desc>
    <defs></defs>
    <g id="i6,-responsive" stroke="none" stroke-width="1" fill="none" fill-rule="evenodd" opacity="0.5">
        <g id="sky" fill="#FFFFFF">
            <g>
                <path d="M1247.85933,231 C1246.13242,229.81279 1245,227.824449 1245,225.577586 C1245,221.944886 1247.94583,219 1251.58477,219 L1273.38879,219 C1273.13925,218.460797 1273,217.860536 1273,217.228448 C1273,214.893141 1274.89153,213 1277.22812,213 L1326.11371,213 C1328.44884,213 1330.34183,214.897893 1330.34183,217.228448 C1330.34183,217.99371 1330.13871,218.711491 1329.78338,219.330734 C1332.40837,220.197777 1334.30285,222.671433 1334.30285,225.577586 C1334.30285,227.905625 1333.09301,229.95118 1331.26623,231.120197 C1336.22663,231.881227 1340.02549,236.164281 1340.02549,241.336207 C1340.02549,247.044736 1335.40199,251.672414 1329.68393,251.672414 L1178.34156,251.672414 C1172.63007,251.672414 1168,247.045991 1168,241.336207 C1168,235.627677 1172.6235,231 1178.34156,231 L1247.85933,231 Z" id="Rectangle-2180" opacity="0.8"></path>
                <ellipse id="Oval-248" opacity="0.8" cx="534.110195" cy="93.1077586" rx="6.1101949" ry="6.10775862"></ellipse>
                <ellipse id="Oval-248" opacity="0.8" cx="1201.82834" cy="87.4181034" rx="6.1101949" ry="6.10775862"></ellipse>
                <ellipse id="Oval-248" opacity="0.8" cx="1147.3066" cy="79.9008621" rx="2.35007496" ry="2.34913793"></ellipse>
                <ellipse id="Oval-248" opacity="0.8" cx="854.017241" cy="87.4181034" rx="6.1101949" ry="6.10775862"></ellipse>
                <ellipse id="Oval-248" opacity="0.8" cx="945.20015" cy="72.3836207" rx="2.35007496" ry="2.34913793"></ellipse>
                <ellipse id="Oval-248" opacity="0.7" cx="42.7713643" cy="129.702586" rx="2.35007496" ry="2.34913793"></ellipse>
                <ellipse id="Oval-248" opacity="0.8" cx="1251.64993" cy="132.521552" rx="2.35007496" ry="2.34913793"></ellipse>
                <ellipse id="Oval-248" opacity="0.7" cx="30.0809595" cy="98.2241379" rx="4.70014993" ry="4.69827586"></ellipse>
                <ellipse id="Oval-248" opacity="0.8" cx="900.548726" cy="146.146552" rx="4.70014993" ry="4.69827586"></ellipse>
                <path d="M0,232.566897 C0,230.782636 1.4464904,229.336207 3.22731096,229.336207 L155.637757,229.336207 C157.420151,229.336207 158.865067,230.786267 158.865067,232.566897 C158.865067,234.351158 157.418577,235.797587 155.637757,235.797587 L3.22731096,235.797587 C1.44491634,235.797587 0,234.347527 0,232.566897 Z M972.931034,93.0560345 C972.931034,91.7586414 973.983127,90.7068966 975.282785,90.7068966 L1130.38438,90.7068966 C1131.68322,90.7068966 1132.73613,91.7495962 1132.73613,93.0560345 C1132.73613,94.3534275 1131.68404,95.4051724 1130.38438,95.4051724 L975.282785,95.4051724 C973.983949,95.4051724 972.931034,94.3624727 972.931034,93.0560345 Z M637.34033,67.6853448 C637.34033,68.9827379 638.39743,70.0344828 639.694335,70.0344828 L738.389623,70.0344828 C739.689704,70.0344828 740.743628,68.9917831 740.743628,67.6853448 C740.743628,66.3879518 739.686528,65.3362069 738.389623,65.3362069 L639.694335,65.3362069 C638.394254,65.3362069 637.34033,66.3789066 637.34033,67.6853448 Z" id="Combined-Shape" opacity="0.7"></path>
                <path d="M318.930951,72.3053161 L342.810421,72.3053161 C347.594369,72.3053161 351.461341,68.4313891 351.461341,63.652658 C351.461341,58.8836507 347.588192,55 342.810421,55 L307.812411,55 C303.028463,55 299.161491,58.873927 299.161491,63.652658 C299.161491,68.4216654 303.03464,72.3053161 307.812411,72.3053161 L313.240768,72.3053161 C313.213479,73.8890841 312.863111,75.6091462 311.560997,77.2496921 L292.889625,77.2496921 C289.475333,77.2496921 286.709145,80.0167828 286.709145,83.4301622 C286.709145,86.836596 289.47624,89.6106322 292.889625,89.6106322 L376.411725,89.6106322 C379.826016,89.6106322 382.592204,86.8435415 382.592204,83.4301622 C382.592204,80.0237283 379.825109,77.2496921 376.411725,77.2496921 L322.154487,77.2496921 C319.707577,73.8106435 315.19314,76.3727894 318.930951,72.3053161 Z" id="Rectangle-2180" opacity="0.8"></path>
                <ellipse id="Oval-248" opacity="0.8" cx="505.350075" cy="11.3491379" rx="2.35007496" ry="2.34913793"></ellipse>
                <ellipse id="Oval-248" opacity="0.8" cx="521.350075" cy="2.34913793" rx="2.35007496" ry="2.34913793"></ellipse>
                <ellipse id="Oval-248" opacity="0.8" cx="528.296852" cy="146.146552" rx="4.70014993" ry="4.69827586"></ellipse>
            </g>
        </g>
    </g>
</svg>