<svg xmlns="http://www.w3.org/2000/svg" viewBox="0 0 98.132 100.983">
  <defs>
    <style>
      .cls-1 {
        fill: #81d4fa;
      }

      .cls-1, .cls-2, .cls-5 {
        stroke: #707070;
      }

      .cls-2 {
        fill: #d7ccc8;
      }

      .cls-3, .cls-4 {
        fill: #fff;
      }

      .cls-3 {
        opacity: 0.86;
      }

      .cls-5, .cls-7 {
        fill: #707070;
      }

      .cls-6 {
        fill: #7db791;
      }

      .cls-8 {
        stroke: none;
      }

      .cls-9 {
        fill: none;
      }
    </style>
  </defs>
  <g id="rick" transform="translate(-752.782 -378.036)">
    <path id="Path_23" data-name="Path 23" class="cls-1" d="M11548.833,461.833l-14.333,3.5s.542-2.708,1-5.667.833-6.167.833-6.167l-11.5-6.5s3.5-2.25,6.167-4.333a46.366,46.366,0,0,0,4.5-4,39.213,39.213,0,0,0-5.5-5.167c-3.458-2.708-8.333-5.667-8.333-5.667s3.749-2.875,7.666-5.333,8-4.5,8-4.5a84.55,84.55,0,0,1-4.5-10.333,82.833,82.833,0,0,1-2.833-10.833s6.625,1.125,11.667,1.5a51.616,51.616,0,0,0,8.5,0l1-19.5a88.679,88.679,0,0,1,9.833,6,93.853,93.853,0,0,1,9,7.5,65.32,65.32,0,0,1,8.333-6.5,82.286,82.286,0,0,1,10-5.333s.167,4.917.667,9.667,1.333,9.333,1.333,9.333a61.461,61.461,0,0,1,10.834-1.167,49.94,49.94,0,0,1,10.166,1.167s-3,4.875-5.333,9.5-4,9-4,9,5.291,1.125,9.333,1.5a33.45,33.45,0,0,0,6.834,0,59.068,59.068,0,0,1-4.5,9.333,97.993,97.993,0,0,1-7,9.833l6,2.667,3,2.333-6.334,6.5-8.166,6.333,2,8.833-11.834-3.5s-7.166,16-21.333,16.667S11548.833,461.833,11548.833,461.833Z" transform="translate(-10768)"/>
    <path id="Path_24" data-name="Path 24" class="cls-2" d="M11549,462.167a89.086,89.086,0,0,1-2.667-18.5,201.929,201.929,0,0,1,.834-20.833s1.333-17.5,21.333-19.167,23.833,19.167,23.833,19.167a118.985,118.985,0,0,1,1,20.833c-.155,6.071,0,12.167-1.833,18.5-1.361,3.583-6.522,10.77-12.333,13.667-7.055,3.519-15.291,2.042-18.667,0-7.152-4.324-11.149-14.369-11.5-13.667" transform="translate(-10768)"/>
    <path id="Path_25" data-name="Path 25" class="cls-3" d="M4,0C6.209,0,8,4.477,8,10S6.209,20,4,20,0,15.523,0,10,1.791,0,4,0Z" transform="translate(798 432)"/>
    <circle id="Ellipse_6" data-name="Ellipse 6" class="cls-4" cx="9.5" cy="9.5" r="9.5" transform="translate(783 424)"/>
    <circle id="Ellipse_7" data-name="Ellipse 7" class="cls-4" cx="9.5" cy="9.5" r="9.5" transform="translate(802 423)"/>
    <g id="Ellipse_8" data-name="Ellipse 8" class="cls-5" transform="translate(789 432)">
      <circle class="cls-8" cx="2" cy="2" r="2"/>
      <circle class="cls-9" cx="2" cy="2" r="1.5"/>
    </g>
    <g id="Ellipse_9" data-name="Ellipse 9" class="cls-5" transform="translate(810 430)">
      <circle class="cls-8" cx="2" cy="2" r="2"/>
      <circle class="cls-9" cx="2" cy="2" r="1.5"/>
    </g>
    <path id="Path_27" data-name="Path 27" class="cls-6" d="M5.12,4.938c1.705,0,3.216-1.053,4.471-.674.288,0,.649.7.649,2.625,0,4.848-2.292,8.778-5.12,8.778S0,11.737,0,6.889,2.292,4.938,5.12,4.938Z" transform="translate(794 453)"/>
    <path id="Path_26" data-name="Path 26" class="cls-7" d="M16-1c8.25,0,16.667,2.9,16.667,4S24.837,4,16,4-.333,4.1-.333,3,7.75-1,16-1Z" transform="translate(786 456)"/>
  </g>
</svg>
